HIERARCHY
ROOT Hips
{
	OFFSET	0	0	0
	CHANNELS 6  Xposition Yposition Zposition Xrotation Yrotation Zrotation
	JOINT Spine
	{
		OFFSET	0	7.36801	1.47921
		CHANNELS 3  Xrotation Yrotation Zrotation
		JOINT Spine1
		{
			OFFSET	0	12.6146	-2.2526
			CHANNELS 3  Xrotation Yrotation Zrotation
			JOINT Spine2
			{
				OFFSET	0	9.56229	1.02493
				CHANNELS 3  Xrotation Yrotation Zrotation
				JOINT Spine3
				{
					OFFSET	0	11.4432	3.40143
					CHANNELS 3  Xrotation Yrotation Zrotation
					JOINT Spine4
					{
						OFFSET	0	16.9396	-1.7345
						CHANNELS 3  Xrotation Yrotation Zrotation
						JOINT Neck
						{
							OFFSET	0	8.08684	-5.66529
							CHANNELS 3  Xrotation Yrotation Zrotation
							JOINT Head
							{
								OFFSET	0	9.70872	-2.90586
								CHANNELS 3  Xrotation Yrotation Zrotation
								End Site
								{
									OFFSET	0	20.2509	-0.979882
								}
							}
						}
					}
					JOINT LeftShoulder
					{
						OFFSET	-4.86562	20.5888	-9.70871
						CHANNELS 3  Xrotation Yrotation Zrotation
						JOINT LeftArm
						{
							OFFSET	-10.6038	-2.90585	3.72808
							CHANNELS 3  Xrotation Yrotation Zrotation
							JOINT LeftForeArm
							{
								OFFSET	-30.8337	-1.4073	2.20088
								CHANNELS 3  Xrotation Yrotation Zrotation
								JOINT LeftHand
								{
									OFFSET	-25.1332	-1.73684	1.79398
									CHANNELS 3  Xrotation Yrotation Zrotation
									End Site
									{
										OFFSET	-9.17235	-0.633862	0.65467
									}
								}
							}
						}
					}
					JOINT RightShoulder
					{
						OFFSET	4.86562	20.5888	-9.70871
						CHANNELS 3  Xrotation Yrotation Zrotation
						JOINT RightArm
						{
							OFFSET	10.6038	-2.90585	3.72808
							CHANNELS 3  Xrotation Yrotation Zrotation
							JOINT RightForeArm
							{
								OFFSET	30.8337	-1.4073	2.20088
								CHANNELS 3  Xrotation Yrotation Zrotation
								JOINT RightHand
								{
									OFFSET	25.1332	-1.73684	1.79398
									CHANNELS 3  Xrotation Yrotation Zrotation
									End Site
									{
										OFFSET	9.17235	-0.633862	0.65467
									}
								}
							}
						}
					}
				}
			}
		}
	}
	JOINT LeftUpLeg
	{
		OFFSET	-10.0134	-3.684	-0.739604
		CHANNELS 3  Xrotation Yrotation Zrotation
		JOINT LeftLeg
		{
			OFFSET	-2.30148	-45.0967	-0.70496
			CHANNELS 3  Xrotation Yrotation Zrotation
			JOINT LeftFoot
			{
				OFFSET	-2.24997	-41.4741	3.56677
				CHANNELS 3  Xrotation Yrotation Zrotation
				JOINT LeftToeBase
				{
					OFFSET	0	-5.07523	-13.4798
					CHANNELS 3  Xrotation Yrotation Zrotation
					End Site
					{
						OFFSET	0	-2.03009	-8.12037
					}
				}
			}
		}
	}
	JOINT RightUpLeg
	{
		OFFSET	10.0134	-3.684	-0.739604
		CHANNELS 3  Xrotation Yrotation Zrotation
		JOINT RightLeg
		{
			OFFSET	2.30148	-45.0967	-0.70496
			CHANNELS 3  Xrotation Yrotation Zrotation
			JOINT RightFoot
			{
				OFFSET	2.24997	-41.4741	3.56677
				CHANNELS 3  Xrotation Yrotation Zrotation
				JOINT RightToeBase
				{
					OFFSET	0	-5.07523	-13.4798
					CHANNELS 3  Xrotation Yrotation Zrotation
					End Site
					{
						OFFSET	0	-2.03009	-8.12037
					}
				}
			}
		}
	}
}
MOTION
Frames: 10
Frame Time: 0.020408
 67.496 94.8302 6.47718 152.307 -15.7103 169.126 5.58546e-05 -0.00558067 0.57343 163.286 -179.989 -179.044 162.661 -179.967 -179.044 166.98 -179.994 -179.427 178.808 -179.996 -179.809 14.9507 23.7158 0.415386 4.47868 33.2751 1.86654 1.33037 -10.8947 2.77162 177.181 -140.297 -123.024 9.55946 -6.21748 -0.63548 -0 4.61029 1.99871 1.39384 14.8624 -2.95653 179.574 131.222 120.941 26.4221 17.9699 -6.85749 -0 0.414166 -8.56106 174.423 -166.886 -166.013 155.852 -169.157 179.732 0.446705 0.00467577 -11.5111 179.322 180 -180 147.068 161.784 162.223 160.11 177.908 179.16 1.93378 0.0135326 10.5462 0.209936 0 0
 66.9858 94.9466 8.72725 152.388 -15.2635 169.219 0.000103458 -0.00778904 0.76099 163.376 -179.984 -178.732 162.726 -179.953 -178.732 166.964 -179.992 -179.239 179.016 -179.996 -179.746 15.5624 23.6602 -0.130915 4.68007 33.6293 1.66833 1.28586 -11.0944 2.68156 176.285 -140.755 -123.753 9.51113 -6.14215 -0.616295 -0 4.71551 2.33917 1.40344 14.7373 -2.97545 0.9339 48.9324 -61.2547 26.3386 17.7112 -6.59697 -0 0.313461 -8.38575 173.154 -165.993 -166.446 154.532 -169.355 179.497 2.84624 0.0332357 -11.4584 179.325 180 -180 147.336 161.882 162.388 159.335 176.908 179.145 1.46078 0.016796 10.2209 0.212499 0 0
 66.566 95.0884 10.7741 152.265 -14.6427 169.598 5.47551e-05 -0.0034517 0.908821 163.458 -179.993 -178.485 162.784 -179.979 -178.485 166.949 -179.997 -179.091 179.207 -179.996 -179.697 16.1286 23.5543 -0.70368 4.86901 33.9855 1.45922 1.31204 -11.2133 2.73786 175.861 -141.034 -124.131 9.49617 -6.38285 -0.64856 -0 4.78854 2.68905 1.37864 14.4614 -2.91963 2.35839 49.0377 -63.1923 26.2778 17.5113 -6.4627 -0 0.241718 -8.17125 171.864 -164.964 -166.882 153.859 -169.705 179.316 4.38224 0.0294229 -11.458 179.328 180 -180 147.8 162.154 162.421 158.625 175.699 179.07 1.22442 0.0130237 9.84119 0.214408 0 0
 66.2319 95.3504 12.9707 151.957 -14.2944 169.87 0.000107342 -0.00598924 1.02677 163.523 -179.988 -178.289 162.837 -179.964 -178.289 166.955 -179.994 -178.973 179.316 -179.996 -179.658 16.4501 23.5388 -1.06065 4.97808 34.3059 1.33298 1.31961 -11.243 2.75407 175.655 -141.241 -124.454 9.50046 -6.72581 -0.616927 -0 4.80795 3.03345 1.38154 14.1106 -2.92162 3.67842 48.9989 -64.234 26.2413 17.3471 -6.30168 -0 0.213467 -7.86793 170.211 -163.667 -167.353 153.571 -170.12 179.306 5.39294 0.0205283 -11.4568 179.33 180 -180 148.567 162.561 162.484 157.951 174.446 179.02 1.24409 -0.020458 9.4791 0.226481 0 0
 65.7242 95.6912 14.9528 151.765 -13.7686 170.465 0.000163496 -0.00829614 1.12901 163.583 -179.983 -178.118 162.911 -179.95 -178.118 167.034 -179.992 -178.871 179.244 -179.995 -179.624 16.205 23.3591 -1.35025 4.9003 34.598 1.25488 1.34193 -11.25 2.80081 175.683 -141.352 -125.116 9.50473 -7.18465 -0.592491 -0 4.74718 3.30226 1.38846 13.6527 -2.93063 4.81555 48.8741 -64.8803 26.1996 17.1133 -6.24989 -0 0.194146 -7.57705 168.548 -162.498 -168.177 153.461 -170.603 179.291 6.05599 0.0303396 -11.4824 179.332 180 -180 149.398 162.887 162.552 157.154 173.108 179.223 1.10947 0.033661 9.14629 0.247983 0 0
 65.1603 96.2184 16.3793 151.573 -14.1715 171.045 0.000122521 -0.00646756 1.08528 163.611 -179.987 -178.191 162.987 -179.961 -178.191 167.199 -179.994 -178.915 178.913 -179.993 -179.638 15.1535 22.4032 -2.10851 4.5603 34.81 1.05215 1.42104 -11.3765 2.96797 176.64 -141.099 -125.615 9.57389 -8.15947 -0.429413 -0 4.51023 3.55964 1.3789 13.3839 -2.90706 6.21182 48.7615 -65.1591 26.1517 16.9682 -6.1751 -0 0.215222 -7.14823 166.368 -161.038 -169.986 154.54 -171.367 179.442 6.20424 -0.0966418 -11.4612 179.333 180 -180 152.066 163.732 163.459 156.132 172.05 179.694 4.22392 -0.0248472 8.91575 0.276603 0 0
 64.7241 96.425 17.3829 151.676 -14.4229 171.416 180 179.996 -178.938 163.651 179.992 -178.231 163.081 179.976 -178.231 167.394 179.996 -178.938 178.532 -179.991 -179.646 13.9359 21.44 -2.95508 4.16658 35.1122 0.847607 1.44662 -11.4624 3.02276 177.707 -140.801 -125.982 9.64974 -9.43182 -0.227293 -0 4.0948 3.88845 1.44184 12.8133 -3.03218 6.80944 48.3268 -64.8066 26.0259 16.5019 -5.94386 -0 0.211052 -6.63709 164.655 -159.901 -171.671 156.629 -172.59 179.563 6.77294 -0.0986385 -11.4861 179.334 180 -180 154.906 164.89 164.757 155.357 171.168 179.354 6.22549 -0.0291927 8.72521 0.300713 0 0
 64.2959 96.5303 18.882 151.78 -15.545 171.056 180 179.983 -179.02 163.743 179.966 -178.366 163.205 179.897 -178.366 167.555 179.983 -179.02 178.332 -179.99 -179.673 13.2854 21.0348 -3.71773 3.9604 35.8161 0.667838 1.42181 -11.7429 2.97498 179.397 -140.22 -125.854 9.75185 -10.8565 0.0559087 -0 3.5516 4.28193 1.41904 12.4335 -2.97898 7.33421 47.9524 -65.1592 25.9971 16.5304 -5.99151 -0 0.39433 -6.15217 162.538 -159.054 -173.044 159.677 -174.284 179.75 7.38445 -0.091332 -11.44 179.335 180 -180 157.417 166.578 165.995 154.341 170.135 179.129 6.99044 0.0428684 8.4251 0.322478 0 0
 63.8995 96.8166 20.2915 151.669 -15.7613 171.332 180 179.975 -179.229 163.895 179.951 -178.715 163.308 179.852 -178.715 167.51 179.975 -179.229 178.725 -179.994 -179.743 14.4341 20.9582 -4.82434 4.376 36.7793 0.238257 1.42551 -11.9603 2.98587 0.781929 -40.2703 54.3363 9.83806 -11.7861 0.300604 -0 3.0863 4.59806 1.40216 12.1616 -2.93975 6.77215 47.421 -64.8712 25.8997 16.2008 -5.80599 -0 0.502867 -5.70658 160.269 -158.484 -174.349 163.002 -176.132 179.824 7.05436 -0.155009 -11.3437 179.334 180 -180 159.453 169.439 167.34 153.127 169.406 179.005 6.60662 0.0640176 8.05633 0.340936 0 0
 63.117 97.0515 21.8937 152.457 -15.8822 172.161 180 179.986 -179.204 163.981 179.972 -178.674 163.439 179.916 -178.674 167.699 179.986 -179.204 178.444 -179.993 -179.735 13.5229 21.0263 -4.7209 4.06133 37.0801 0.368058 1.37904 -11.7941 2.88611 2.18601 -40.6519 54.8485 9.89999 -12.5251 0.380247 -0 2.64757 4.85176 1.45113 12.2285 -3.04349 7.45431 47.0744 -64.7753 25.88 16.3196 -5.7197 -0 0.686136 -5.18597 158.417 -157.965 -176.278 165.837 -178.054 179.852 7.25869 -0.166772 -11.3763 179.333 180 -180 161.793 172.818 168.977 152.154 168.949 179.173 7.50747 0.0178381 7.70756 0.359558 0 0
